<svg width="234" height="54" viewBox="0 0 234 54" fill="none" xmlns="http://www.w3.org/2000/svg">
<path d="M31.92 9.552C31.92 11.536 31.376 13.312 30.288 14.88C29.2 16.416 27.712 17.696 25.824 18.72C27.04 19.552 28 20.576 28.704 21.792C29.44 22.976 29.808 24.288 29.808 25.728C29.808 27.456 29.28 29.168 28.224 30.864C27.2 32.528 25.824 34.016 24.096 35.328C22.368 36.608 20.4 37.648 18.192 38.448C15.984 39.248 13.728 39.648 11.424 39.648C8.928 39.648 6.736 39.168 4.848 38.208C2.992 37.28 1.536 35.952 0.48 34.224C0.8 33.264 1.216 32.08 1.728 30.672C2.272 29.232 2.864 27.728 3.504 26.16C4.144 24.56 4.784 22.976 5.424 21.408C6.096 19.84 6.72 18.432 7.296 17.184C8.512 14.464 9.6 12.208 10.56 10.416C11.52 8.624 12.4 7.2 13.2 6.144C11.44 6.688 9.84 7.312 8.4 8.016C6.96 8.688 5.904 9.344 5.232 9.984C4.944 9.792 4.64 9.504 4.32 9.12C4.032 8.736 3.744 8.32 3.456 7.872C3.2 7.392 2.976 6.912 2.784 6.432C2.624 5.952 2.528 5.52 2.496 5.136C3.328 4.56 4.4 4.016 5.712 3.504C7.056 2.96 8.512 2.496 10.08 2.112C11.648 1.728 13.248 1.424 14.88 1.2C16.544 0.975998 18.128 0.863997 19.632 0.863997C23.472 0.863997 26.48 1.632 28.656 3.168C30.832 4.704 31.92 6.832 31.92 9.552ZM13.632 21.024C13.024 20.736 12.464 20.304 11.952 19.728C11.216 21.36 10.512 22.96 9.84 24.528C9.2 26.096 8.624 27.552 8.112 28.896C7.6 30.24 7.184 31.408 6.864 32.4C6.544 33.392 6.368 34.112 6.336 34.56C6.784 34.816 7.312 35.008 7.92 35.136C8.56 35.264 9.344 35.328 10.272 35.328C12.448 35.328 14.528 35.024 16.512 34.416C18.496 33.808 20.24 32.992 21.744 31.968C23.248 30.912 24.448 29.712 25.344 28.368C26.24 27.024 26.688 25.616 26.688 24.144C26.688 22.032 25.776 20.512 23.952 19.584C21.456 20.608 18.64 21.12 15.504 21.12C15.056 21.12 14.704 21.12 14.448 21.12C14.224 21.12 13.952 21.088 13.632 21.024ZM22.944 4.368C22.272 4.368 21.552 4.416 20.784 4.512C20.048 4.576 19.264 4.688 18.432 4.848C18.56 4.976 18.656 5.12 18.72 5.28C18.816 5.408 18.896 5.552 18.96 5.712C18.672 6.096 18.32 6.656 17.904 7.392C17.488 8.128 17.024 8.992 16.512 9.984C16 10.944 15.456 12.016 14.88 13.2C14.336 14.384 13.776 15.6 13.2 16.848C13.744 16.72 14.4 16.624 15.168 16.56C15.968 16.464 16.752 16.416 17.52 16.416C17.936 16.416 18.336 16.432 18.72 16.464C19.136 16.496 19.536 16.544 19.92 16.608C21.456 16.352 22.832 15.984 24.048 15.504C25.296 14.992 26.368 14.416 27.264 13.776C28.16 13.104 28.848 12.368 29.328 11.568C29.808 10.768 30.048 9.92 30.048 9.024C30.048 7.488 29.44 6.336 28.224 5.568C27.008 4.768 25.248 4.368 22.944 4.368ZM49.716 16.608C50.036 16.608 50.404 16.672 50.82 16.8C51.268 16.896 51.668 17.04 52.02 17.232C52.372 17.392 52.66 17.568 52.884 17.76C53.14 17.952 53.268 18.128 53.268 18.288C52.628 19.632 52.036 20.992 51.492 22.368C50.948 23.712 50.484 25.008 50.1 26.256C49.716 27.504 49.412 28.672 49.188 29.76C48.996 30.848 48.9 31.792 48.9 32.592C48.9 33.488 48.996 34.24 49.188 34.848C49.38 35.424 49.7 35.84 50.148 36.096C49.764 36.352 49.268 36.56 48.66 36.72C48.052 36.88 47.508 36.96 47.028 36.96C45.3 36.96 44.436 35.776 44.436 33.408C44.436 31.584 45.044 29.088 46.26 25.92C45.62 27.392 44.884 28.784 44.052 30.096C43.22 31.376 42.372 32.512 41.508 33.504C40.644 34.496 39.764 35.312 38.868 35.952C38.004 36.56 37.204 36.928 36.468 37.056C35.284 36.992 34.324 36.432 33.588 35.376C32.852 34.288 32.484 32.912 32.484 31.248C32.484 29.456 32.868 27.568 33.636 25.584C34.404 23.6 35.38 21.76 36.564 20.064C37.78 18.368 39.092 16.96 40.5 15.84C41.908 14.688 43.268 14.08 44.58 14.016C44.9 14.112 45.252 14.304 45.636 14.592C46.052 14.88 46.436 15.216 46.788 15.6C47.172 15.984 47.492 16.384 47.748 16.8C48.004 17.184 48.148 17.52 48.18 17.808C46.9 18 45.572 18.624 44.196 19.68C42.852 20.736 41.62 22.016 40.5 23.52C39.412 24.992 38.516 26.576 37.812 28.272C37.108 29.968 36.756 31.552 36.756 33.024C36.756 33.632 36.98 34.016 37.428 34.176C38.356 33.984 39.428 33.2 40.644 31.824C41.86 30.416 43.332 28.256 45.06 25.344C45.38 24.768 45.732 24.128 46.116 23.424C46.532 22.72 46.948 21.984 47.364 21.216C47.78 20.448 48.18 19.68 48.564 18.912C48.98 18.112 49.364 17.344 49.716 16.608ZM54.5509 35.04C54.7109 34.112 54.9829 32.896 55.3669 31.392C55.7829 29.856 56.2629 28.24 56.8069 26.544C57.3509 24.816 57.9269 23.088 58.5349 21.36C59.1429 19.632 59.7349 18.08 60.3109 16.704C60.7269 15.712 61.0949 14.944 61.4149 14.4C61.7349 13.824 62.0869 13.344 62.4709 12.96C62.9189 13.024 63.3829 13.136 63.8629 13.296C64.3429 13.456 64.8069 13.648 65.2549 13.872C65.7029 14.096 66.1029 14.336 66.4549 14.592C66.8069 14.816 67.0789 15.04 67.2709 15.264C66.4069 16.288 65.6389 17.456 64.9669 18.768C64.3269 20.08 63.6709 21.76 62.9989 23.808C64.7269 22.272 66.2469 20.8 67.5589 19.392C68.9029 17.984 70.1509 16.416 71.3029 14.688C71.4949 14.528 71.8309 14.448 72.3109 14.448C72.7589 14.448 73.1909 14.528 73.6069 14.688C74.0229 14.816 74.3109 15.008 74.4709 15.264C73.8949 16.8 73.6069 18.32 73.6069 19.824C73.6069 21.232 73.8149 22.288 74.2309 22.992C74.1989 23.184 73.9749 23.552 73.5589 24.096C73.1749 24.64 72.7429 25.152 72.2629 25.632C71.3989 25.184 70.6309 24.576 69.9589 23.808C69.2869 23.008 68.7909 22.144 68.4709 21.216C66.9669 22.272 65.6869 23.312 64.6309 24.336C63.5749 25.328 62.6629 26.448 61.8949 27.696C61.1589 28.912 60.5189 30.32 59.9749 31.92C59.4629 33.52 58.9669 35.424 58.4869 37.632C58.1989 37.6 57.8469 37.488 57.4309 37.296C57.0469 37.136 56.6469 36.928 56.2309 36.672C55.8469 36.416 55.4949 36.144 55.1749 35.856C54.8549 35.568 54.6469 35.296 54.5509 35.04ZM75.1103 32.784C75.1103 32.496 75.1263 32.144 75.1583 31.728C75.2223 31.28 75.3183 30.704 75.4463 30C75.5743 29.264 75.7343 28.384 75.9263 27.36C76.1503 26.336 76.4223 25.104 76.7422 23.664C76.8063 23.344 76.9503 22.832 77.1743 22.128C77.3983 21.424 77.6863 20.688 78.0383 19.92C78.4223 19.12 78.8703 18.352 79.3823 17.616C79.9263 16.88 80.5663 16.336 81.3023 15.984C81.8463 16.112 82.5663 16.448 83.4623 16.992C84.3583 17.504 85.1263 18.224 85.7663 19.152C85.0303 19.984 84.4063 20.816 83.8943 21.648C83.4143 22.48 82.9663 23.344 82.5503 24.24C82.1663 25.136 81.7983 26.064 81.4463 27.024C81.1263 27.984 80.7583 28.992 80.3423 30.048C79.9903 30.944 79.6703 31.872 79.3823 32.832C79.0943 33.76 78.9343 34.576 78.9023 35.28C78.9023 35.856 78.8863 36.256 78.8543 36.48C78.8543 36.736 78.7743 36.864 78.6143 36.864C78.4863 36.864 78.2303 36.784 77.8463 36.624C77.4623 36.464 77.0623 36.224 76.6463 35.904C76.2623 35.552 75.9103 35.12 75.5903 34.608C75.2703 34.096 75.1103 33.488 75.1103 32.784ZM84.2783 11.952C84.2783 11.76 84.3263 11.472 84.4223 11.088C84.2623 10.928 84.1183 10.688 83.9903 10.368C83.8943 10.048 83.8463 9.76 83.8463 9.504C83.8463 9.216 83.8783 8.832 83.9423 8.352C84.0383 7.84 84.1503 7.296 84.2783 6.72C84.4063 6.144 84.5663 5.552 84.7583 4.944C84.9503 4.304 85.1423 3.728 85.3343 3.216C85.7183 3.216 86.1823 3.328 86.7263 3.552C87.3023 3.744 87.8783 4.016 88.4543 4.368C89.0303 4.688 89.5583 5.056 90.0383 5.472C90.5183 5.856 90.8863 6.224 91.1423 6.576C90.7903 6.928 90.3263 7.424 89.7503 8.064C89.1743 8.672 88.6143 9.328 88.0703 10.032C87.5263 10.704 87.0303 11.344 86.5823 11.952C86.1343 12.56 85.8463 12.992 85.7183 13.248C85.3343 13.184 84.9983 13.024 84.7103 12.768C84.4223 12.48 84.2783 12.208 84.2783 11.952ZM102.966 16.896C102.934 17.504 102.822 18.144 102.63 18.816C102.47 19.456 102.262 20.048 102.006 20.592C101.75 21.104 101.478 21.536 101.19 21.888C100.902 22.24 100.63 22.416 100.374 22.416C100.022 22.384 99.814 22.144 99.75 21.696C99.75 21.6 99.782 21.456 99.846 21.264C99.942 21.04 100.038 20.8 100.134 20.544C100.23 20.288 100.31 20.032 100.374 19.776C100.47 19.52 100.518 19.296 100.518 19.104C100.518 18.656 100.406 18.288 100.182 18C99.99 17.68 99.718 17.52 99.366 17.52C98.086 17.52 97.11 18.32 96.438 19.92C95.766 21.52 95.43 23.872 95.43 26.976C95.43 27.296 95.446 27.488 95.478 27.552C96.15 27.52 96.742 27.504 97.254 27.504C97.798 27.472 98.326 27.456 98.838 27.456C98.87 27.52 98.886 27.648 98.886 27.84C98.886 28.128 98.822 28.336 98.694 28.464C97.958 28.624 97.366 28.768 96.918 28.896C96.502 28.992 96.182 29.088 95.958 29.184C95.734 29.28 95.59 29.392 95.526 29.52C95.494 29.616 95.478 29.76 95.478 29.952C95.478 30.208 95.478 30.464 95.478 30.72C95.51 30.976 95.526 31.296 95.526 31.68C95.526 34.368 94.79 36.528 93.318 38.16C91.878 39.792 89.862 40.736 87.27 40.992C86.822 40.96 86.358 40.832 85.878 40.608C85.398 40.384 84.934 40.096 84.486 39.744C84.07 39.392 83.702 38.992 83.382 38.544C83.062 38.128 82.838 37.696 82.71 37.248C82.71 36.032 82.966 34.88 83.478 33.792C83.99 32.672 84.678 31.696 85.542 30.864C86.438 30 87.478 29.312 88.662 28.8C89.878 28.256 91.19 27.936 92.598 27.84C92.598 27.04 92.518 26.256 92.358 25.488C92.198 24.72 92.022 23.984 91.83 23.28C91.67 22.544 91.51 21.84 91.35 21.168C91.19 20.464 91.11 19.776 91.11 19.104C91.11 18.24 91.286 17.392 91.638 16.56C91.99 15.696 92.454 14.912 93.03 14.208C93.606 13.472 94.278 12.848 95.046 12.336C95.814 11.824 96.614 11.472 97.446 11.28C97.798 11.376 98.262 11.664 98.838 12.144C99.446 12.592 100.038 13.104 100.614 13.68C101.19 14.256 101.702 14.848 102.15 15.456C102.598 16.032 102.87 16.512 102.966 16.896ZM87.126 38.784C87.894 38.464 88.614 38 89.286 37.392C89.99 36.784 90.598 36.096 91.11 35.328C91.622 34.56 92.022 33.744 92.31 32.88C92.63 32.016 92.79 31.168 92.79 30.336C92.15 30.432 91.446 30.736 90.678 31.248C89.91 31.728 89.19 32.32 88.518 33.024C87.846 33.696 87.286 34.4 86.838 35.136C86.39 35.872 86.166 36.512 86.166 37.056C86.166 37.76 86.486 38.336 87.126 38.784ZM105.832 17.616C105.672 17.424 105.528 17.024 105.4 16.416C105.272 15.776 105.208 15.232 105.208 14.784C106.04 14.848 106.84 14.912 107.608 14.976C108.376 15.008 109.08 15.04 109.72 15.072C110.2 14.112 110.712 13.168 111.256 12.24C111.832 11.28 112.376 10.416 112.888 9.648C113.432 8.848 113.928 8.176 114.376 7.632C114.856 7.088 115.224 6.736 115.48 6.576C115.8 6.576 116.2 6.64 116.68 6.768C117.192 6.864 117.704 7.008 118.216 7.2C118.728 7.36 119.192 7.536 119.608 7.728C120.024 7.92 120.312 8.112 120.472 8.304C119.512 9.52 118.68 10.656 117.976 11.712C117.304 12.736 116.568 13.92 115.768 15.264C116.408 15.264 117.048 15.248 117.688 15.216C118.36 15.184 119.032 15.136 119.704 15.072C119.864 15.232 119.992 15.44 120.088 15.696C120.184 15.92 120.232 16.16 120.232 16.416C118.664 16.992 116.76 17.312 114.52 17.376C113.72 18.912 113 20.448 112.36 21.984C111.752 23.488 111.224 24.944 110.776 26.352C110.36 27.76 110.024 29.088 109.768 30.336C109.544 31.584 109.432 32.704 109.432 33.696C109.432 35.104 109.96 35.888 111.016 36.048C111.976 35.92 112.888 35.68 113.752 35.328C114.616 34.976 115.384 34.528 116.056 33.984C116.248 34.272 116.36 34.512 116.392 34.704C116.2 34.992 115.864 35.328 115.384 35.712C114.936 36.096 114.44 36.464 113.896 36.816C113.352 37.2 112.824 37.52 112.312 37.776C111.8 38.032 111.416 38.176 111.16 38.208C110.36 38.176 109.56 38 108.76 37.68C107.96 37.36 107.224 36.96 106.552 36.48C105.912 36 105.384 35.472 104.968 34.896C104.552 34.288 104.344 33.696 104.344 33.12C104.344 32.352 104.44 31.392 104.632 30.24C104.856 29.056 105.16 27.776 105.544 26.4C105.928 25.024 106.376 23.584 106.888 22.08C107.4 20.576 107.96 19.088 108.568 17.616H105.832ZM136.435 16.608C136.755 16.608 137.123 16.672 137.539 16.8C137.987 16.896 138.387 17.04 138.739 17.232C139.091 17.392 139.379 17.568 139.603 17.76C139.859 17.952 139.987 18.128 139.987 18.288C139.347 19.632 138.755 20.992 138.211 22.368C137.667 23.712 137.203 25.008 136.819 26.256C136.435 27.504 136.131 28.672 135.907 29.76C135.715 30.848 135.619 31.792 135.619 32.592C135.619 33.488 135.715 34.24 135.907 34.848C136.099 35.424 136.419 35.84 136.867 36.096C136.483 36.352 135.987 36.56 135.379 36.72C134.771 36.88 134.227 36.96 133.747 36.96C132.019 36.96 131.155 35.776 131.155 33.408C131.155 31.584 131.763 29.088 132.979 25.92C132.339 27.392 131.603 28.784 130.771 30.096C129.939 31.376 129.091 32.512 128.227 33.504C127.363 34.496 126.483 35.312 125.587 35.952C124.723 36.56 123.923 36.928 123.187 37.056C122.003 36.992 121.043 36.432 120.307 35.376C119.571 34.288 119.203 32.912 119.203 31.248C119.203 29.456 119.587 27.568 120.355 25.584C121.123 23.6 122.099 21.76 123.283 20.064C124.499 18.368 125.811 16.96 127.219 15.84C128.627 14.688 129.987 14.08 131.299 14.016C131.619 14.112 131.971 14.304 132.355 14.592C132.771 14.88 133.155 15.216 133.507 15.6C133.891 15.984 134.211 16.384 134.467 16.8C134.723 17.184 134.867 17.52 134.899 17.808C133.619 18 132.291 18.624 130.915 19.68C129.571 20.736 128.339 22.016 127.219 23.52C126.131 24.992 125.235 26.576 124.531 28.272C123.827 29.968 123.475 31.552 123.475 33.024C123.475 33.632 123.699 34.016 124.147 34.176C125.075 33.984 126.147 33.2 127.363 31.824C128.579 30.416 130.051 28.256 131.779 25.344C132.099 24.768 132.451 24.128 132.835 23.424C133.251 22.72 133.667 21.984 134.083 21.216C134.499 20.448 134.899 19.68 135.283 18.912C135.699 18.112 136.083 17.344 136.435 16.608ZM187.123 9.552C187.123 11.536 186.579 13.312 185.491 14.88C184.403 16.416 182.915 17.696 181.027 18.72C182.243 19.552 183.203 20.576 183.907 21.792C184.643 22.976 185.011 24.288 185.011 25.728C185.011 27.456 184.483 29.168 183.427 30.864C182.403 32.528 181.027 34.016 179.299 35.328C177.571 36.608 175.603 37.648 173.395 38.448C171.187 39.248 168.931 39.648 166.627 39.648C164.131 39.648 161.939 39.168 160.051 38.208C158.195 37.28 156.739 35.952 155.683 34.224C156.003 33.264 156.419 32.08 156.931 30.672C157.475 29.232 158.067 27.728 158.707 26.16C159.347 24.56 159.987 22.976 160.627 21.408C161.299 19.84 161.923 18.432 162.499 17.184C163.715 14.464 164.803 12.208 165.763 10.416C166.723 8.624 167.603 7.2 168.403 6.144C166.643 6.688 165.043 7.312 163.603 8.016C162.163 8.688 161.107 9.344 160.435 9.984C160.147 9.792 159.843 9.504 159.523 9.12C159.235 8.736 158.947 8.32 158.659 7.872C158.403 7.392 158.179 6.912 157.987 6.432C157.827 5.952 157.731 5.52 157.699 5.136C158.531 4.56 159.603 4.016 160.915 3.504C162.259 2.96 163.715 2.496 165.283 2.112C166.851 1.728 168.451 1.424 170.083 1.2C171.747 0.975998 173.331 0.863997 174.835 0.863997C178.675 0.863997 181.683 1.632 183.859 3.168C186.035 4.704 187.123 6.832 187.123 9.552ZM168.835 21.024C168.227 20.736 167.667 20.304 167.155 19.728C166.419 21.36 165.715 22.96 165.043 24.528C164.403 26.096 163.827 27.552 163.315 28.896C162.803 30.24 162.387 31.408 162.067 32.4C161.747 33.392 161.571 34.112 161.539 34.56C161.987 34.816 162.515 35.008 163.123 35.136C163.763 35.264 164.547 35.328 165.475 35.328C167.651 35.328 169.731 35.024 171.715 34.416C173.699 33.808 175.443 32.992 176.947 31.968C178.451 30.912 179.651 29.712 180.547 28.368C181.443 27.024 181.891 25.616 181.891 24.144C181.891 22.032 180.979 20.512 179.155 19.584C176.659 20.608 173.843 21.12 170.707 21.12C170.259 21.12 169.907 21.12 169.651 21.12C169.427 21.12 169.155 21.088 168.835 21.024ZM178.147 4.368C177.475 4.368 176.755 4.416 175.987 4.512C175.251 4.576 174.467 4.688 173.635 4.848C173.763 4.976 173.859 5.12 173.923 5.28C174.019 5.408 174.099 5.552 174.163 5.712C173.875 6.096 173.523 6.656 173.107 7.392C172.691 8.128 172.227 8.992 171.715 9.984C171.203 10.944 170.659 12.016 170.083 13.2C169.539 14.384 168.979 15.6 168.403 16.848C168.947 16.72 169.603 16.624 170.371 16.56C171.171 16.464 171.955 16.416 172.723 16.416C173.139 16.416 173.539 16.432 173.923 16.464C174.339 16.496 174.739 16.544 175.123 16.608C176.659 16.352 178.035 15.984 179.251 15.504C180.499 14.992 181.571 14.416 182.467 13.776C183.363 13.104 184.051 12.368 184.531 11.568C185.011 10.768 185.251 9.92 185.251 9.024C185.251 7.488 184.643 6.336 183.427 5.568C182.211 4.768 180.451 4.368 178.147 4.368ZM204.919 16.608C205.239 16.608 205.607 16.672 206.023 16.8C206.471 16.896 206.871 17.04 207.223 17.232C207.575 17.392 207.863 17.568 208.087 17.76C208.343 17.952 208.471 18.128 208.471 18.288C207.831 19.632 207.239 20.992 206.695 22.368C206.151 23.712 205.687 25.008 205.303 26.256C204.919 27.504 204.615 28.672 204.391 29.76C204.199 30.848 204.103 31.792 204.103 32.592C204.103 33.488 204.199 34.24 204.391 34.848C204.583 35.424 204.903 35.84 205.351 36.096C204.967 36.352 204.471 36.56 203.863 36.72C203.255 36.88 202.711 36.96 202.231 36.96C200.503 36.96 199.639 35.776 199.639 33.408C199.639 31.584 200.247 29.088 201.463 25.92C200.823 27.392 200.087 28.784 199.255 30.096C198.423 31.376 197.575 32.512 196.711 33.504C195.847 34.496 194.967 35.312 194.071 35.952C193.207 36.56 192.407 36.928 191.671 37.056C190.487 36.992 189.527 36.432 188.791 35.376C188.055 34.288 187.687 32.912 187.687 31.248C187.687 29.456 188.071 27.568 188.839 25.584C189.607 23.6 190.583 21.76 191.767 20.064C192.983 18.368 194.295 16.96 195.703 15.84C197.111 14.688 198.471 14.08 199.783 14.016C200.103 14.112 200.455 14.304 200.839 14.592C201.255 14.88 201.639 15.216 201.991 15.6C202.375 15.984 202.695 16.384 202.951 16.8C203.207 17.184 203.351 17.52 203.383 17.808C202.103 18 200.775 18.624 199.399 19.68C198.055 20.736 196.823 22.016 195.703 23.52C194.615 24.992 193.719 26.576 193.015 28.272C192.311 29.968 191.959 31.552 191.959 33.024C191.959 33.632 192.183 34.016 192.631 34.176C193.559 33.984 194.631 33.2 195.847 31.824C197.063 30.416 198.535 28.256 200.263 25.344C200.583 24.768 200.935 24.128 201.319 23.424C201.735 22.72 202.151 21.984 202.567 21.216C202.983 20.448 203.383 19.68 203.767 18.912C204.183 18.112 204.567 17.344 204.919 16.608ZM228.767 28.56C228.031 30.896 227.295 33.024 226.559 34.944C225.823 36.864 225.039 38.624 224.207 40.224C223.375 41.856 222.479 43.344 221.519 44.688C220.559 46.064 219.503 47.36 218.351 48.576C216.879 50.112 215.359 51.28 213.791 52.08C212.223 52.912 210.655 53.328 209.087 53.328C208.287 53.328 207.487 53.232 206.687 53.04C205.918 52.88 205.198 52.64 204.526 52.32C203.822 52.032 203.214 51.68 202.702 51.264C202.158 50.88 201.774 50.464 201.55 50.016C201.55 49.632 201.774 49.296 202.222 49.008C202.606 49.36 202.926 49.632 203.182 49.824C203.438 50.016 203.694 50.176 203.95 50.304C204.174 50.432 204.43 50.512 204.718 50.544C204.974 50.576 205.278 50.592 205.63 50.592C207.455 50.592 209.231 50.048 210.959 48.96C212.719 47.904 214.367 46.384 215.903 44.4C217.471 42.448 218.895 40.064 220.174 37.248C221.455 34.464 222.543 31.344 223.439 27.888C223.023 28.528 222.511 29.312 221.903 30.24C221.295 31.168 220.623 32.096 219.887 33.024C219.151 33.92 218.383 34.736 217.583 35.472C216.815 36.208 216.063 36.704 215.327 36.96C214.815 36.928 214.271 36.816 213.695 36.624C213.151 36.464 212.623 36.224 212.111 35.904C211.631 35.584 211.199 35.2 210.815 34.752C210.431 34.304 210.175 33.792 210.047 33.216C210.047 32.288 210.079 31.552 210.143 31.008C210.207 30.432 210.319 29.808 210.479 29.136C210.767 27.92 211.183 26.544 211.727 25.008C212.303 23.472 212.959 21.968 213.695 20.496C214.463 18.992 215.295 17.6 216.191 16.32C217.119 15.008 218.079 13.984 219.071 13.248C219.327 13.248 219.647 13.28 220.031 13.344C220.415 13.376 220.815 13.456 221.231 13.584C221.647 13.712 222.047 13.872 222.431 14.064C222.815 14.224 223.151 14.448 223.439 14.736C223.087 15.056 222.319 16.128 221.135 17.952C219.951 19.776 218.639 22.4 217.199 25.824C217.039 26.176 216.847 26.688 216.623 27.36C216.399 28.032 216.175 28.736 215.951 29.472C215.759 30.208 215.583 30.928 215.423 31.632C215.263 32.336 215.183 32.896 215.183 33.312C215.183 33.568 215.215 33.76 215.279 33.888C215.375 34.016 215.455 34.112 215.519 34.176C216.095 34.08 216.863 33.616 217.823 32.784C218.783 31.92 219.871 30.592 221.087 28.8C221.855 27.648 222.559 26.512 223.199 25.392C223.839 24.24 224.463 23.088 225.071 21.936C225.711 20.784 226.367 19.6 227.039 18.384C227.711 17.168 228.431 15.92 229.199 14.64C229.615 14.64 230.063 14.688 230.543 14.784C231.023 14.88 231.487 15.008 231.935 15.168C232.383 15.296 232.767 15.456 233.087 15.648C233.439 15.808 233.695 15.984 233.855 16.176C232.863 18.288 231.935 20.352 231.071 22.368C230.207 24.384 229.439 26.448 228.767 28.56Z" fill="white"/>
</svg>
